<mxfile host="app.diagrams.net" modified="2021-09-30T07:54:31.183Z" agent="5.0 (Windows NT 10.0; Win64; x64) AppleWebKit/537.36 (KHTML, like Gecko) Chrome/94.0.4606.61 Safari/537.36" etag="pZDIudvd72kqnrpN_uM7" version="15.3.5" type="github">
  <diagram name="Page-1" id="9361dd3d-8414-5efd-6122-117bd74ce7a7">
    <mxGraphModel dx="865" dy="856" grid="1" gridSize="10" guides="1" tooltips="1" connect="1" arrows="1" fold="1" page="0" pageScale="1.5" pageWidth="826" pageHeight="1169" background="none" math="0" shadow="0">
      <root>
        <mxCell id="0" />
        <mxCell id="1" parent="0" />
        <mxCell id="81" value="" style="edgeStyle=elbowEdgeStyle;elbow=horizontal;endArrow=none;dashed=1" parent="1" edge="1">
          <mxGeometry x="1460" y="437.8935185185186" width="100" height="100" as="geometry">
            <mxPoint x="1354.5" y="610" as="sourcePoint" />
            <mxPoint x="1354.5" y="770" as="targetPoint" />
          </mxGeometry>
        </mxCell>
        <mxCell id="2" value="" style="fillColor=#CC4125;strokeColor=#660000" parent="1" vertex="1">
          <mxGeometry x="200" y="150" width="10" height="310" as="geometry" />
        </mxCell>
        <mxCell id="3" value="start()" style="edgeStyle=none;verticalLabelPosition=top;verticalAlign=bottom;labelPosition=left;align=right" parent="1" edge="1">
          <mxGeometry x="110" y="49.5" width="100" height="100" as="geometry">
            <mxPoint x="110" y="149.5" as="sourcePoint" />
            <mxPoint x="200" y="149.5" as="targetPoint" />
          </mxGeometry>
        </mxCell>
        <mxCell id="4" value="DubboBootstrap" style="shadow=1;fillColor=#A2C4C9;strokeColor=none" parent="1" vertex="1">
          <mxGeometry x="152.5" y="60" width="105" height="50" as="geometry" />
        </mxCell>
        <mxCell id="6" value="" style="fillColor=#CC4125;strokeColor=#660000" parent="1" vertex="1">
          <mxGeometry x="400" y="220" width="10" height="360" as="geometry" />
        </mxCell>
        <mxCell id="7" value="DefaultApplicationDeployer" style="shadow=1;fillColor=#A2C4C9;strokeColor=none" parent="1" vertex="1">
          <mxGeometry x="328.13" y="60" width="153.75" height="50" as="geometry" />
        </mxCell>
        <mxCell id="8" value="" style="edgeStyle=none;endArrow=none;dashed=1" parent="1" source="7" target="6" edge="1">
          <mxGeometry x="272.3350694444445" y="165" width="100" height="100" as="geometry">
            <mxPoint x="347.2588734567901" y="110" as="sourcePoint" />
            <mxPoint x="347.5761959876544" y="165" as="targetPoint" />
          </mxGeometry>
        </mxCell>
        <mxCell id="urJkHg7MX-Qc6OtWBqoH-96" value="return" style="edgeStyle=none;curved=1;rounded=0;orthogonalLoop=1;jettySize=auto;html=1;exitX=0;exitY=0.75;exitDx=0;exitDy=0;entryX=1;entryY=0.99;entryDx=0;entryDy=0;entryPerimeter=0;endArrow=block;startSize=14;endSize=14;sourcePerimeterSpacing=8;targetPerimeterSpacing=8;endFill=1;" edge="1" parent="1" source="21" target="urJkHg7MX-Qc6OtWBqoH-90">
          <mxGeometry relative="1" as="geometry" />
        </mxCell>
        <mxCell id="21" value="" style="fillColor=#CC4125;strokeColor=#660000" parent="1" vertex="1">
          <mxGeometry x="597.5" y="244.3942901234568" width="10" height="80" as="geometry" />
        </mxCell>
        <mxCell id="22" value="DeployListener" style="shadow=1;fillColor=#A2C4C9;strokeColor=none" parent="1" vertex="1">
          <mxGeometry x="550" y="60" width="105" height="50" as="geometry" />
        </mxCell>
        <mxCell id="23" value="" style="edgeStyle=none;endArrow=none;dashed=1" parent="1" source="22" target="21" edge="1">
          <mxGeometry x="566.9878472222224" y="174.99999999999997" width="100" height="100" as="geometry">
            <mxPoint x="627.1527777777778" y="110" as="sourcePoint" />
            <mxPoint x="627.1527777777778" y="260" as="targetPoint" />
          </mxGeometry>
        </mxCell>
        <mxCell id="24" value="DefaultMoudleDeployer" style="shadow=1;fillColor=#A2C4C9;strokeColor=none" parent="1" vertex="1">
          <mxGeometry x="720" y="60" width="125" height="50" as="geometry" />
        </mxCell>
        <mxCell id="25" value="" style="edgeStyle=none;endArrow=none;dashed=1" parent="1" source="24" target="26" edge="1">
          <mxGeometry x="727.3350694444446" y="165" width="100" height="100" as="geometry">
            <mxPoint x="802.2588734567901" y="110" as="sourcePoint" />
            <mxPoint x="802.5761959876544" y="165" as="targetPoint" />
          </mxGeometry>
        </mxCell>
        <mxCell id="26" value="" style="fillColor=#CC4125;strokeColor=#660000" parent="1" vertex="1">
          <mxGeometry x="777.4999999999999" y="460.0042901234568" width="10" height="40" as="geometry" />
        </mxCell>
        <mxCell id="30" value="&lt;&lt;javascript&gt;&gt;&#xa;:GimqRequest&#xa;Batch" style="shadow=1;fillColor=#A2C4C9;strokeColor=none" parent="1" vertex="1">
          <mxGeometry x="952.5" y="60" width="105" height="50" as="geometry" />
        </mxCell>
        <mxCell id="33" value="" style="edgeStyle=elbowEdgeStyle;elbow=horizontal;endArrow=none;dashed=1" parent="1" source="4" target="2" edge="1">
          <mxGeometry x="230.00000000000003" y="310" width="100" height="100" as="geometry">
            <mxPoint x="230.00000000000003" y="410" as="sourcePoint" />
            <mxPoint x="330" y="310" as="targetPoint" />
          </mxGeometry>
        </mxCell>
        <mxCell id="44" value="" style="edgeStyle=none;dashed=1;endArrow=none;entryX=0.5;entryY=0;entryDx=0;entryDy=0;" parent="1" source="2" target="Vn47oO25GAq3vMgFAKfI-95" edge="1">
          <mxGeometry x="50" y="300" width="100" height="100" as="geometry">
            <mxPoint x="50" y="400" as="sourcePoint" />
            <mxPoint x="205" y="360" as="targetPoint" />
          </mxGeometry>
        </mxCell>
        <mxCell id="49" value="" style="fillColor=#CC4125;strokeColor=#660000" parent="1" vertex="1">
          <mxGeometry x="1000" y="468.3333333333333" width="10" height="81.66666666666669" as="geometry" />
        </mxCell>
        <mxCell id="50" value="" style="edgeStyle=none;endArrow=none;dashed=1" parent="1" source="30" target="49" edge="1">
          <mxGeometry x="956.5711805555559" y="205" width="100" height="100" as="geometry">
            <mxPoint x="1031.7361111111113" y="150" as="sourcePoint" />
            <mxPoint x="1031.7361111111113" y="329.3942901234568" as="targetPoint" />
          </mxGeometry>
        </mxCell>
        <mxCell id="55" value="&lt;&lt;javascript&gt;&gt;&#xa;:Proxy" style="shadow=1;fillColor=#A2C4C9;strokeColor=none" parent="1" vertex="1">
          <mxGeometry x="1090" y="462.08333333333337" width="105" height="50" as="geometry" />
        </mxCell>
        <mxCell id="56" value="" style="edgeStyle=none;endArrow=none;dashed=1" parent="1" source="55" target="57" edge="1">
          <mxGeometry x="1204.0711805555559" y="380.08680555555554" width="100" height="100" as="geometry">
            <mxPoint x="1279.2361111111113" y="325.08680555555554" as="sourcePoint" />
            <mxPoint x="1350" y="445.08680555555554" as="targetPoint" />
          </mxGeometry>
        </mxCell>
        <mxCell id="57" value="" style="fillColor=#CC4125;strokeColor=#660000" parent="1" vertex="1">
          <mxGeometry x="1137.5" y="530" width="10" height="90" as="geometry" />
        </mxCell>
        <mxCell id="58" value="" style="fillColor=#CC4125;strokeColor=#660000" parent="1" vertex="1">
          <mxGeometry x="1350" y="540" width="10" height="70" as="geometry" />
        </mxCell>
        <mxCell id="60" value="&lt;&lt;create&gt;&gt;" style="edgeStyle=elbowEdgeStyle;elbow=vertical;verticalLabelPosition=top;verticalAlign=bottom;dashed=1" parent="1" source="49" target="55" edge="1">
          <mxGeometry x="901.25" y="322.5" width="100" height="100" as="geometry">
            <mxPoint x="1031.25" y="351.8942901234568" as="sourcePoint" />
            <mxPoint x="1148.75" y="351.8942901234568" as="targetPoint" />
            <Array as="points" />
          </mxGeometry>
        </mxCell>
        <mxCell id="61" value="&lt;&lt;ajax&gt;&gt;" style="edgeStyle=elbowEdgeStyle;elbow=vertical;verticalLabelPosition=top;verticalAlign=bottom" parent="1" source="49" target="57" edge="1">
          <mxGeometry x="1065" y="359.5" width="100" height="100" as="geometry">
            <mxPoint x="1044.7839506172838" y="359.5" as="sourcePoint" />
            <mxPoint x="1195" y="359.5" as="targetPoint" />
            <Array as="points" />
          </mxGeometry>
        </mxCell>
        <mxCell id="62" value="postComments()" style="edgeStyle=elbowEdgeStyle;elbow=vertical;verticalLabelPosition=top;verticalAlign=bottom" parent="1" edge="1">
          <mxGeometry x="1225" y="309.5" width="100" height="100" as="geometry">
            <mxPoint x="1147.5" y="542.5" as="sourcePoint" />
            <mxPoint x="1350" y="542.5" as="targetPoint" />
            <Array as="points" />
          </mxGeometry>
        </mxCell>
        <mxCell id="63" value="&lt;&lt;json&gt;&gt;" style="edgeStyle=elbowEdgeStyle;elbow=vertical;dashed=1;verticalLabelPosition=bottom;verticalAlign=top" parent="1" edge="1">
          <mxGeometry x="1075" y="396" width="100" height="100" as="geometry">
            <mxPoint x="1350" y="606.5" as="sourcePoint" />
            <mxPoint x="1147.5" y="606.5" as="targetPoint" />
            <Array as="points" />
          </mxGeometry>
        </mxCell>
        <mxCell id="64" value="&lt;&lt;service&gt;&gt;&#xa;:GimqService" style="shadow=1;fillColor=#A2C4C9;strokeColor=none" parent="1" vertex="1">
          <mxGeometry x="1302.5" y="60" width="105" height="50" as="geometry" />
        </mxCell>
        <mxCell id="65" value="" style="edgeStyle=none;endArrow=none;dashed=1" parent="1" source="64" target="58" edge="1">
          <mxGeometry x="1174.0711805555559" y="210" width="100" height="100" as="geometry">
            <mxPoint x="1222.5" y="115" as="sourcePoint" />
            <mxPoint x="1222.5" y="445" as="targetPoint" />
          </mxGeometry>
        </mxCell>
        <mxCell id="71" value="服务导出流程" style="rounded=1;fontStyle=1;fillColor=#FFD966;strokeColor=none" parent="1" vertex="1">
          <mxGeometry x="50" y="20" width="150" height="30" as="geometry" />
        </mxCell>
        <mxCell id="urJkHg7MX-Qc6OtWBqoH-87" value="start()" style="edgeStyle=none;curved=1;rounded=0;orthogonalLoop=1;jettySize=auto;html=1;endArrow=open;startSize=14;endSize=14;sourcePerimeterSpacing=8;targetPerimeterSpacing=8;entryX=0;entryY=0;entryDx=0;entryDy=0;" edge="1" parent="1" target="6">
          <mxGeometry relative="1" as="geometry">
            <mxPoint x="220" y="220" as="sourcePoint" />
            <mxPoint x="450" y="220" as="targetPoint" />
          </mxGeometry>
        </mxCell>
        <mxCell id="Vn47oO25GAq3vMgFAKfI-89" value="" style="html=1;points=[];perimeter=orthogonalPerimeter;hachureGap=4;pointerEvents=0;" parent="1" vertex="1">
          <mxGeometry x="210" y="200" width="10" height="40" as="geometry" />
        </mxCell>
        <mxCell id="Vn47oO25GAq3vMgFAKfI-90" value="start()" style="edgeStyle=orthogonalEdgeStyle;html=1;align=left;spacingLeft=2;endArrow=block;rounded=0;entryX=1;entryY=0;startSize=14;endSize=14;sourcePerimeterSpacing=8;targetPerimeterSpacing=8;dashed=1;" parent="1" target="Vn47oO25GAq3vMgFAKfI-89" edge="1">
          <mxGeometry relative="1" as="geometry">
            <mxPoint x="210" y="180" as="sourcePoint" />
            <Array as="points">
              <mxPoint x="240" y="180" />
            </Array>
          </mxGeometry>
        </mxCell>
        <mxCell id="Vn47oO25GAq3vMgFAKfI-91" value="1、服务导出的入口就是DubboBootstrap.start()方法&lt;br&gt;2、然后再调用DubboBootstrap.start(),它提供异步、同步启动的功能&lt;br&gt;3、DubboBootstrap依赖于ApplicationDeployer进行启动&lt;br&gt;4、ApplicationDeplyoyer会先判断自己的状态是否是STARTING、STARTED，如果是会做出一些相应的处理&lt;br&gt;5、如果程序继续往下执行，则调用onStarting()方法，将state置为starting，并且调用Dubbo的starting事件&lt;br&gt;6、通过initialize()方法去初始化相关配置（内容较多，这里应该后续会单独分一个流程写）&lt;br&gt;7、调用doStart()，对多个Moudle分别委托给DefaultMoudleDeployer启动，&lt;br&gt;3.掉用initialize进行初始化（这里暂时还没有仔细看、后续再仔细看这里的逻辑）&lt;br&gt;4.吊用exportServices导出服务" style="rounded=0;whiteSpace=wrap;html=1;hachureGap=4;pointerEvents=0;fillColor=#fff2cc;strokeColor=#d6b656;align=left;" parent="1" vertex="1">
          <mxGeometry x="138" y="-280" width="692" height="240" as="geometry" />
        </mxCell>
        <mxCell id="Vn47oO25GAq3vMgFAKfI-95" value="" style="fillColor=#CC4125;strokeColor=#660000" parent="1" vertex="1">
          <mxGeometry x="200" y="609.9966666666667" width="10" height="95.83333333333331" as="geometry" />
        </mxCell>
        <mxCell id="Vn47oO25GAq3vMgFAKfI-97" value="" style="html=1;points=[];perimeter=orthogonalPerimeter;hachureGap=4;pointerEvents=0;" parent="1" vertex="1">
          <mxGeometry x="210" y="324" width="10" height="40" as="geometry" />
        </mxCell>
        <mxCell id="Vn47oO25GAq3vMgFAKfI-98" value="exportServices" style="edgeStyle=orthogonalEdgeStyle;html=1;align=left;spacingLeft=2;endArrow=block;rounded=0;entryX=1;entryY=0;startSize=14;endSize=14;sourcePerimeterSpacing=8;targetPerimeterSpacing=8;dashed=1;" parent="1" target="Vn47oO25GAq3vMgFAKfI-97" edge="1">
          <mxGeometry relative="1" as="geometry">
            <mxPoint x="210" y="304" as="sourcePoint" />
            <Array as="points">
              <mxPoint x="240" y="304" />
            </Array>
          </mxGeometry>
        </mxCell>
        <mxCell id="urJkHg7MX-Qc6OtWBqoH-92" value="onStarting()" style="edgeStyle=none;curved=1;rounded=0;orthogonalLoop=1;jettySize=auto;html=1;entryX=0;entryY=0.5;entryDx=0;entryDy=0;endArrow=block;startSize=14;endSize=14;sourcePerimeterSpacing=8;targetPerimeterSpacing=8;endFill=1;" edge="1" parent="1" target="21">
          <mxGeometry relative="1" as="geometry">
            <mxPoint x="415.5" y="284" as="sourcePoint" />
          </mxGeometry>
        </mxCell>
        <mxCell id="urJkHg7MX-Qc6OtWBqoH-90" value="" style="html=1;points=[];perimeter=orthogonalPerimeter;hachureGap=4;pointerEvents=0;" vertex="1" parent="1">
          <mxGeometry x="410" y="264.39" width="10" height="40" as="geometry" />
        </mxCell>
        <mxCell id="urJkHg7MX-Qc6OtWBqoH-91" value="onStarting()" style="edgeStyle=orthogonalEdgeStyle;html=1;align=left;spacingLeft=2;endArrow=block;rounded=0;entryX=1;entryY=0;startSize=14;endSize=14;sourcePerimeterSpacing=8;targetPerimeterSpacing=8;dashed=1;" edge="1" target="urJkHg7MX-Qc6OtWBqoH-90" parent="1">
          <mxGeometry relative="1" as="geometry">
            <mxPoint x="410.5" y="244" as="sourcePoint" />
            <Array as="points">
              <mxPoint x="440.5" y="244" />
            </Array>
          </mxGeometry>
        </mxCell>
        <mxCell id="urJkHg7MX-Qc6OtWBqoH-94" value="" style="html=1;points=[];perimeter=orthogonalPerimeter;hachureGap=4;pointerEvents=0;" vertex="1" parent="1">
          <mxGeometry x="410" y="349" width="10" height="40" as="geometry" />
        </mxCell>
        <mxCell id="urJkHg7MX-Qc6OtWBqoH-95" value="initialize()" style="edgeStyle=orthogonalEdgeStyle;html=1;align=left;spacingLeft=2;endArrow=block;rounded=0;entryX=1;entryY=0;startSize=14;endSize=14;sourcePerimeterSpacing=8;targetPerimeterSpacing=8;dashed=1;" edge="1" target="urJkHg7MX-Qc6OtWBqoH-94" parent="1">
          <mxGeometry relative="1" as="geometry">
            <mxPoint x="410" y="329" as="sourcePoint" />
            <Array as="points">
              <mxPoint x="440" y="329" />
            </Array>
          </mxGeometry>
        </mxCell>
        <mxCell id="urJkHg7MX-Qc6OtWBqoH-102" style="edgeStyle=none;curved=1;rounded=0;orthogonalLoop=1;jettySize=auto;html=1;entryX=0;entryY=0.5;entryDx=0;entryDy=0;dashed=1;endArrow=block;endFill=1;startSize=14;endSize=14;sourcePerimeterSpacing=8;targetPerimeterSpacing=8;" edge="1" parent="1" target="26">
          <mxGeometry relative="1" as="geometry">
            <mxPoint x="415" y="480" as="sourcePoint" />
          </mxGeometry>
        </mxCell>
        <mxCell id="urJkHg7MX-Qc6OtWBqoH-103" value="start()" style="edgeLabel;html=1;align=center;verticalAlign=middle;resizable=0;points=[];" vertex="1" connectable="0" parent="urJkHg7MX-Qc6OtWBqoH-102">
          <mxGeometry x="-0.077" relative="1" as="geometry">
            <mxPoint as="offset" />
          </mxGeometry>
        </mxCell>
        <mxCell id="urJkHg7MX-Qc6OtWBqoH-97" value="" style="html=1;points=[];perimeter=orthogonalPerimeter;hachureGap=4;pointerEvents=0;" vertex="1" parent="1">
          <mxGeometry x="410" y="450" width="10" height="110" as="geometry" />
        </mxCell>
        <mxCell id="urJkHg7MX-Qc6OtWBqoH-98" value="doStart()" style="edgeStyle=orthogonalEdgeStyle;html=1;align=left;spacingLeft=2;endArrow=block;rounded=0;entryX=1;entryY=0;startSize=14;endSize=14;sourcePerimeterSpacing=8;targetPerimeterSpacing=8;dashed=1;" edge="1" target="urJkHg7MX-Qc6OtWBqoH-97" parent="1">
          <mxGeometry relative="1" as="geometry">
            <mxPoint x="410" y="430" as="sourcePoint" />
            <Array as="points">
              <mxPoint x="440" y="430" />
            </Array>
          </mxGeometry>
        </mxCell>
      </root>
    </mxGraphModel>
  </diagram>
</mxfile>
